<svg width="16" height="16" viewBox="0 0 16 16" fill="none" xmlns="http://www.w3.org/2000/svg">
<rect width="16" height="16" fill="white"/>
<g clip-path="url(#clip0_915_2)">
<path fill-rule="evenodd" clip-rule="evenodd" d="M8.24384 1.5043C9.47316 1.55649 10.6385 2.08195 11.5085 2.9764C12.3321 3.81853 12.837 4.93464 12.9329 6.12477C13.0288 7.31488 12.7093 8.50121 12.0317 9.47115L8.8264 14.0847C8.73718 14.2131 8.61942 14.3178 8.48291 14.3901C8.3464 14.4623 8.19508 14.5 8.04156 14.5C7.88803 14.5 7.73672 14.4623 7.60022 14.3901C7.46371 14.3178 7.34593 14.2131 7.25671 14.0847L4.05138 9.47115C3.33631 8.44174 3.02379 7.17355 3.17585 5.91823C3.3279 4.66294 3.93341 3.51229 4.87222 2.69464C5.81103 1.87699 7.01452 1.4521 8.24384 1.5043ZM8.14946 3.12802C8.97689 3.16472 9.76123 3.53418 10.3468 4.16309C10.9011 4.75522 11.241 5.53999 11.3055 6.37679C11.3701 7.21358 11.155 8.04771 10.699 8.72973L8.54157 11.9736C8.48152 12.0639 8.40225 12.1375 8.31037 12.1883C8.21848 12.2391 8.11665 12.2656 8.01331 12.2656C7.90997 12.2656 7.80812 12.2391 7.71623 12.1883C7.62437 12.1375 7.5451 12.0639 7.48505 11.9736L5.32761 8.72973C4.84631 8.00591 4.63596 7.11421 4.73831 6.23157C4.84065 5.34893 5.24822 4.53989 5.8801 3.96498C6.51199 3.39007 7.32203 3.09132 8.14946 3.12802Z" fill="#010644"/>
<path fill-rule="evenodd" clip-rule="evenodd" d="M3.55806 4.50024C3.81116 5.16219 4.28284 5.93681 5.05531 7.20538C6.0472 8.83434 6.54316 9.64881 7.16269 10.1448C8.18725 10.9651 9.49563 11.2615 10.7404 10.9554C10.8502 10.9284 10.9601 10.8941 11.0725 10.8518L8.8264 14.0846C8.73718 14.2131 8.61942 14.3178 8.48291 14.39C8.3464 14.4623 8.19508 14.4999 8.04156 14.4999C7.88803 14.4999 7.73672 14.4623 7.60022 14.39C7.46371 14.3178 7.34593 14.2131 7.25671 14.0846L4.05138 9.4711C3.33631 8.44168 3.02379 7.17349 3.17585 5.91818C3.23562 5.42475 3.36545 4.94746 3.55806 4.50024Z" fill="url(#paint0_linear_915_2)"/>
<path d="M8.4745 5.5925V5.59159L9.11184 5.8989L9.75173 5.64062L8.04877 4.95312L6.34583 5.64062L8.04877 6.32812L8.68611 6.07078L8.04877 5.78799V5.7873L8.4745 5.5925Z" fill="#010644"/>
<path d="M6.34583 5.86987V7.93238L7.94233 8.57702V6.51453L6.34583 5.86987ZM7.1973 7.93994L6.77156 7.76808V7.52355L7.1973 7.69542V7.93994Z" fill="#010644"/>
<path d="M9.11309 6.12768V6.70175L8.68735 6.87364V6.29956L8.15518 6.51453V8.57702L9.75169 7.93238V5.86987L9.11309 6.12768Z" fill="#010644"/>
</g>
<defs>
<linearGradient id="paint0_linear_915_2" x1="7.10029" y1="4.49976" x2="7.10029" y2="14.5" gradientUnits="userSpaceOnUse">
<stop stop-color="#F7A31B"/>
<stop offset="1" stop-color="#FFC463"/>
</linearGradient>
<clipPath id="clip0_915_2">
<rect width="10" height="13" fill="white" transform="translate(3 1.5)"/>
</clipPath>
</defs>
</svg>
