<svg width="900" height="640" viewBox="0 0 900 640" fill="none" xmlns="http://www.w3.org/2000/svg">
  <rect width="900" height="640" rx="36" fill="#07111F"/>
  <rect x="24" y="24" width="852" height="592" rx="28" fill="url(#bg)"/>
  <rect x="56" y="58" width="788" height="56" rx="18" fill="#0F1C30"/>
  <circle cx="94" cy="86" r="7" fill="#27496F"/>
  <circle cx="118" cy="86" r="7" fill="#27496F"/>
  <circle cx="142" cy="86" r="7" fill="#27496F"/>
  <rect x="188" y="72" width="212" height="28" rx="14" fill="#122540"/>
  <rect x="72" y="146" width="212" height="406" rx="22" fill="#091523"/>
  <rect x="316" y="146" width="492" height="406" rx="22" fill="#0A1729"/>
  <rect x="96" y="176" width="164" height="18" rx="9" fill="#18314C"/>
  <rect x="96" y="214" width="142" height="12" rx="6" fill="#12233B"/>
  <rect x="96" y="240" width="152" height="12" rx="6" fill="#12233B"/>
  <rect x="96" y="276" width="164" height="86" rx="16" fill="#0E2136"/>
  <rect x="114" y="296" width="92" height="10" rx="5" fill="#7ED9FF"/>
  <rect x="114" y="318" width="118" height="10" rx="5" fill="#24476B"/>
  <rect x="114" y="340" width="96" height="10" rx="5" fill="#24476B"/>
  <rect x="96" y="382" width="164" height="126" rx="16" fill="#0E2136"/>
  <path d="M130 432H226" stroke="#3C79FF" stroke-width="12" stroke-linecap="round"/>
  <path d="M130 458H202" stroke="#5FD4FF" stroke-width="12" stroke-linecap="round"/>
  <path d="M130 484H214" stroke="#284C73" stroke-width="12" stroke-linecap="round"/>
  <rect x="344" y="180" width="436" height="146" rx="20" fill="#101F35"/>
  <rect x="372" y="208" width="132" height="16" rx="8" fill="#5FD4FF"/>
  <rect x="372" y="238" width="188" height="12" rx="6" fill="#284C73"/>
  <rect x="372" y="262" width="152" height="12" rx="6" fill="#284C73"/>
  <rect x="372" y="292" width="116" height="10" rx="5" fill="#3C79FF"/>
  <rect x="344" y="352" width="436" height="172" rx="20" fill="#0F1B30"/>
  <rect x="374" y="386" width="184" height="14" rx="7" fill="#18314C"/>
  <rect x="374" y="420" width="378" height="18" rx="9" fill="#122540"/>
  <rect x="374" y="452" width="336" height="18" rx="9" fill="#122540"/>
  <rect x="374" y="484" width="294" height="18" rx="9" fill="#122540"/>
  <circle cx="716" cy="244" r="42" fill="url(#pulse)" fill-opacity="0.45"/>
  <circle cx="716" cy="244" r="16" fill="#D6F6FF"/>
  <defs>
    <linearGradient id="bg" x1="24" y1="24" x2="876" y2="616" gradientUnits="userSpaceOnUse">
      <stop stop-color="#0A1528"/>
      <stop offset="1" stop-color="#050A13"/>
    </linearGradient>
    <radialGradient id="pulse" cx="0" cy="0" r="1" gradientUnits="userSpaceOnUse" gradientTransform="translate(716 244) rotate(90) scale(42)">
      <stop stop-color="#69D3FF"/>
      <stop offset="1" stop-color="#69D3FF" stop-opacity="0"/>
    </radialGradient>
  </defs>
</svg>
